<svg xmlns="http://www.w3.org/2000/svg" width="520" height="320" viewBox="0 0 520 320">
<defs><linearGradient id="g" x1="0" y1="0" x2="1" y2="1"><stop offset="0" stop-color="#351426"/><stop offset="1" stop-color="#09111d"/></linearGradient></defs>
<rect width="520" height="320" rx="24" fill="url(#g)"/>
<circle cx="475" cy="38" r="8" fill="#F43F5E" opacity=".9"/><circle cx="452" cy="38" r="4" fill="#F43F5E" opacity=".45"/>
<text x="42" y="44" fill="#F43F5E" font-family="Inter, Arial" font-size="12" font-weight="700" letter-spacing="2">ML</text>
<text x="42" y="65" fill="#EAF1FA" font-family="Inter, Arial" font-size="13" font-weight="700">Car Resale Value & Market Segmentation</text>
<text x="42" y="307" fill="#8FA2BA" font-family="Inter, Arial" font-size="11">PYTHON / ML</text>
<text x="350" y="307" fill="#70839B" font-family="Inter, Arial" font-size="10">Prediction  •  Fairness  •  Segments</text>
<rect x="44" y="79" width="432" height="204" rx="16" fill="#1b1320" stroke="#593047"/>
<rect x="44" y="79" width="432" height="40" rx="16" fill="#26172b"/>
<rect x="62" y="92" width="128" height="13" rx="6" fill="#F43F5E"/><rect x="348" y="91" width="94" height="16" rx="8" fill="#3b2033"/>
<rect x="62" y="137" width="216" height="124" rx="12" fill="#22182a"/>
<polyline points="80,232 106,212 137,220 164,188 194,202 220,172 252,190" fill="none" stroke="#F43F5E" stroke-width="4"/>
<line x1="80" y1="245" x2="252" y2="245" stroke="#4e3547"/><line x1="80" y1="158" x2="80" y2="245" stroke="#4e3547"/>
<rect x="295" y="137" width="163" height="57" rx="12" fill="#22182a"/><rect x="315" y="155" width="92" height="9" rx="4" fill="#8e5270"/><rect x="315" y="172" width="62" height="7" rx="3" fill="#604055"/>
<rect x="295" y="204" width="78" height="57" rx="12" fill="#22182a"/><rect x="381" y="204" width="77" height="57" rx="12" fill="#22182a"/>

</svg>