<svg xmlns="http://www.w3.org/2000/svg" width="520" height="320" viewBox="0 0 520 320">
<defs><linearGradient id="g" x1="0" y1="0" x2="1" y2="1"><stop offset="0" stop-color="#14233A"/><stop offset="1" stop-color="#09111d"/></linearGradient></defs>
<rect width="520" height="320" rx="24" fill="url(#g)"/>
<circle cx="475" cy="38" r="8" fill="#38BDF8" opacity=".9"/><circle cx="452" cy="38" r="4" fill="#38BDF8" opacity=".45"/>
<text x="42" y="44" fill="#38BDF8" font-family="Inter, Arial" font-size="12" font-weight="700" letter-spacing="2">WEB</text>
<text x="42" y="65" fill="#EAF1FA" font-family="Inter, Arial" font-size="13" font-weight="700">JavaFX Web Browser</text>
<text x="42" y="307" fill="#8FA2BA" font-family="Inter, Arial" font-size="11">JAVA / JAVAFX</text>
<text x="350" y="307" fill="#70839B" font-family="Inter, Arial" font-size="10">Stack  •  Queue  •  DLL</text>
<rect x="42" y="76" width="436" height="210" rx="16" fill="#0d1525" stroke="#315078"/>
<rect x="58" y="94" width="404" height="34" rx="9" fill="#162238"/>
<circle cx="74" cy="111" r="5" fill="#38BDF8"/><circle cx="90" cy="111" r="5" fill="#334155"/><circle cx="106" cy="111" r="5" fill="#334155"/>
<rect x="136" y="103" width="238" height="16" rx="8" fill="#223451"/>
<rect x="58" y="144" width="88" height="124" rx="10" fill="#111d31"/><rect x="158" y="144" width="304" height="54" rx="10" fill="#17263e"/>
<rect x="178" y="162" width="124" height="10" rx="5" fill="#38BDF8" opacity=".85"/><rect x="178" y="181" width="180" height="7" rx="3.5" fill="#52637d"/>
<rect x="158" y="210" width="145" height="58" rx="10" fill="#101b2d"/><rect x="319" y="210" width="143" height="58" rx="10" fill="#101b2d"/>

</svg>