<svg xmlns="http://www.w3.org/2000/svg" width="520" height="320" viewBox="0 0 520 320">
<defs><linearGradient id="g" x1="0" y1="0" x2="1" y2="1"><stop offset="0" stop-color="#0a2830"/><stop offset="1" stop-color="#09111d"/></linearGradient></defs>
<rect width="520" height="320" rx="24" fill="url(#g)"/>
<circle cx="475" cy="38" r="8" fill="#22D3EE" opacity=".9"/><circle cx="452" cy="38" r="4" fill="#22D3EE" opacity=".45"/>
<text x="42" y="44" fill="#22D3EE" font-family="Inter, Arial" font-size="12" font-weight="700" letter-spacing="2">RENTAL</text>
<text x="42" y="65" fill="#EAF1FA" font-family="Inter, Arial" font-size="13" font-weight="700">Vehicle Management & Renting</text>
<text x="42" y="307" fill="#8FA2BA" font-family="Inter, Arial" font-size="11">C++ / FILE I/O</text>
<text x="350" y="307" fill="#70839B" font-family="Inter, Arial" font-size="10">Inventory  •  Rentals  •  Persistence</text>
<rect x="44" y="79" width="432" height="204" rx="16" fill="#0c1e23" stroke="#22505b"/>
<rect x="44" y="79" width="432" height="40" rx="16" fill="#10272d"/>
<rect x="63" y="91" width="105" height="14" rx="7" fill="#22D3EE"/><rect x="350" y="91" width="91" height="15" rx="7" fill="#183b43"/>
<rect x="63" y="138" width="118" height="123" rx="12" fill="#10282f"/><rect x="194" y="138" width="118" height="123" rx="12" fill="#10282f"/><rect x="325" y="138" width="116" height="123" rx="12" fill="#10282f"/>
<path d="M88 211 C97 194, 116 188, 132 194 C145 199, 157 205, 163 220 L159 229 H87 Z" fill="#2f8191"/><circle cx="105" cy="226" r="6" fill="#22D3EE"/><circle cx="150" cy="226" r="6" fill="#22D3EE"/>

</svg>